<svg id="Capa_1" enable-background="new 0 0 512 512" height="512" viewBox="0 0 512 512" width="512" xmlns="http://www.w3.org/2000/svg"><g><path d="m172.143 137.714h30v30h-30z"/><path d="m172.143 206.571h30v30h-30z"/><path d="m309.857 206.571h30v30h-30z"/><path d="m378.714 206.571h30v30h-30z"/><path d="m309.857 275.429h30v30h-30z"/><path d="m378.714 275.429h30v30h-30z"/><path d="m309.857 344.286h30v30h-30z"/><path d="m378.714 344.286h30v30h-30z"/><path d="m309.857 413.143h30v30h-30z"/><path d="m378.714 413.143h30v30h-30z"/><path d="m103.286 206.571h30v30h-30z"/><path d="m172.143 275.429h30v30h-30z"/><path d="m103.286 275.429h30v30h-30z"/><path d="m172.143 344.286h30v30h-30z"/><path d="m103.286 344.286h30v30h-30z"/><path d="m477.571 482v-344.286h-206.571v-71.564l-34.429 5.738v-71.888h-167.714v99.841l-34.428 5.738v376.421h-34.429v30h512v-30zm-30-314.286v314.286h-176.571v-314.286zm-348.714-137.714h107.714v46.888l-107.714 17.953zm-34.428 100.993 176.571-29.429v36.15 344.286h-38.857v-68.857h-98.857v68.857h-38.857zm107.714 351.007h-38.857v-38.857h38.857z"/></g></svg>