<svg xmlns="http://www.w3.org/2000/svg" width="262.193" height="221.225" viewBox="0 0 262.193 221.225">
  <g id="confirmation_1_" data-name="confirmation (1)" transform="translate(0 0)">
    <path id="Path_39" data-name="Path 39" d="M276.748,118.906l30.09,24.6V263.561a10.558,10.558,0,0,1-10.558,10.558H112.557A10.558,10.558,0,0,1,102,263.561V143.507l30.092-24.6Zm0,0" transform="translate(-49.766 -58.015)" fill="#5c88ff"/>
    <path id="Path_40" data-name="Path 40" d="M160.762,114.158v-93.6A10.558,10.558,0,0,1,171.322,10H294.857a10.558,10.558,0,0,1,10.56,10.558v93.6l-72.327,54.574Zm0,0" transform="translate(-78.437 -4.88)" fill="#f9fceb"/>
    <path id="Path_41" data-name="Path 41" d="M303.721,110.286a36.427,36.427,0,1,1-36.427-36.427A36.429,36.429,0,0,1,303.721,110.286Zm0,0" transform="translate(-112.641 -36.037)" fill="#5c88fc"/>
    <path id="Path_42" data-name="Path 42" d="M278.365,81.527,250.154,58.463V15.679A15.7,15.7,0,0,0,234.473,0H193.189a5.121,5.121,0,0,0,0,10.242h41.284a5.445,5.445,0,0,1,5.439,5.437v90.893l-67.206,51.1-67.206-51.1V15.678a5.445,5.445,0,0,1,5.439-5.437h41.284a5.121,5.121,0,0,0,0-10.242H110.938A15.7,15.7,0,0,0,95.257,15.678V58.462L67.046,81.527a5.12,5.12,0,0,0-1.88,3.965v56.853H42.121a5.121,5.121,0,1,0,0,10.242H65.166v52.96a15.7,15.7,0,0,0,15.679,15.679H264.567a15.7,15.7,0,0,0,15.679-15.679V85.491a5.12,5.12,0,0,0-1.88-3.965ZM270,203.217l-60.591-60.591L270,96.56ZM250.154,71.691,267.325,85.73,250.154,98.784Zm-77.448,97.532a5.117,5.117,0,0,0,3.1-1.044l25.379-19.3,62.1,62.1H82.127l62.1-62.1,25.381,19.3a5.107,5.107,0,0,0,3.1,1.044Zm-97.3-72.664L136,142.626,75.407,203.217Zm19.85,2.224L78.086,85.729,95.257,71.691Zm0,0" transform="translate(-18.053 0)"/>
    <path id="Path_43" data-name="Path 43" d="M32.774,341.965H5.121a5.121,5.121,0,0,0,0,10.242H32.774a5.121,5.121,0,0,0,0-10.242Zm0,0" transform="translate(0 -166.847)"/>
    <path id="Path_44" data-name="Path 44" d="M297.121,10.242a5.122,5.122,0,0,0,5.121-5.121A5.121,5.121,0,1,0,293.5,8.742,5.162,5.162,0,0,0,297.121,10.242Zm0,0" transform="translate(-142.468 0)"/>
    <path id="Path_45" data-name="Path 45" d="M220.867,105.407a41.548,41.548,0,1,0,41.548-41.548A41.6,41.6,0,0,0,220.867,105.407Zm72.854,0A31.306,31.306,0,1,1,262.415,74.1,31.341,31.341,0,0,1,293.721,105.407Zm0,0" transform="translate(-107.762 -31.157)"/>
    <path id="Path_46" data-name="Path 46" d="M278.093,127.828a5.12,5.12,0,1,0-7.241,7.241l9.04,9.04a5.119,5.119,0,0,0,7.241,0L303,128.246A5.121,5.121,0,0,0,295.753,121l-12.24,12.24Zm0,0" transform="translate(-131.418 -58.307)" fill="#fff"/>
  </g>
</svg>
